HIERARCHY
ROOT Hips
{
	OFFSET -3.958830 18.904000 13.208200
	CHANNELS 6 Xposition Yposition Zposition Zrotation Yrotation Xrotation 
	JOINT LHipJoint
	{
		OFFSET 0.000000 0.000000 0.000000
		CHANNELS 3 Zrotation Yrotation Xrotation
		JOINT LeftUpLeg
		{
			OFFSET 1.800000 -1.400000 0.085000
			CHANNELS 3 Zrotation Yrotation Xrotation
			JOINT LeftLeg
			{
				OFFSET 2.215000 -6.000000 0.000000
				CHANNELS 3 Zrotation Yrotation Xrotation
				JOINT LeftFoot
				{
					OFFSET 2.500000 -6.900000 0.000000
					CHANNELS 3 Zrotation Yrotation Xrotation
					JOINT LeftToeBase
					{
						OFFSET 0.200000 -0.500000 1.950000
						CHANNELS 3 Zrotation Yrotation Xrotation
						End Site
						{
							OFFSET 0.000000 0.000000 0.000000
						}
					}
				}
			}
		}
	}
	JOINT RHipJoint
	{
		OFFSET 0.000000 0.000000 0.000000
		CHANNELS 3 Zrotation Yrotation Xrotation
		JOINT RightUpLeg
		{
			OFFSET -1.800000 -1.400000 0.085000
			CHANNELS 3 Zrotation Yrotation Xrotation
			JOINT RightLeg
			{
				OFFSET -2.215000 -6.000000 0.000000
				CHANNELS 3 Zrotation Yrotation Xrotation
				JOINT RightFoot
				{
					OFFSET -2.500000 -6.900000 0.000000
					CHANNELS 3 Zrotation Yrotation Xrotation
					JOINT RightToeBase
					{
						OFFSET -0.200000 -0.500000 1.950000
						CHANNELS 3 Zrotation Yrotation Xrotation
						End Site
						{
							OFFSET 0.000000 0.000000 0.000000
						}
					}
				}
			}
		}
	}
	JOINT LowerBack
	{
		OFFSET 0.000000 0.000000 0.000000
		CHANNELS 3 Zrotation Yrotation Xrotation
		JOINT Spine
		{
			OFFSET -0.087000 1.940000 -0.288900
			CHANNELS 3 Zrotation Yrotation Xrotation
			JOINT Spine1
			{
				OFFSET 0.000000 1.950000 0.060000
				CHANNELS 3 Zrotation Yrotation Xrotation
				JOINT Neck
				{
					OFFSET 0.000000 0.000000 0.000000
					CHANNELS 3 Zrotation Yrotation Xrotation
					JOINT Neck1
					{
						OFFSET 0.000000 1.600000 0.340000
						CHANNELS 3 Zrotation Yrotation Xrotation
						JOINT Head
						{
							OFFSET 0.000000 1.667000 -0.240000
							CHANNELS 3 Zrotation Yrotation Xrotation
							End Site
							{
								OFFSET 0.000000 0.000000 0.000000
							}
						}
					}
				}
				JOINT LeftShoulder
				{
					OFFSET 0.000000 0.000000 0.000000
					CHANNELS 3 Zrotation Yrotation Xrotation
					JOINT LeftArm
					{
						OFFSET 2.700000 1.550000 -0.730000
						CHANNELS 3 Zrotation Yrotation Xrotation
						JOINT LeftForeArm
						{
							OFFSET 5.450000 0.000000 0.000000
							CHANNELS 3 Zrotation Yrotation Xrotation
							JOINT LeftHand
							{
								OFFSET 3.450000 0.000000 0.000000
								CHANNELS 3 Zrotation Yrotation Xrotation
								JOINT LeftHandIndex1
								{
									OFFSET 0.750000 0.000000 0.000000
									CHANNELS 3 Zrotation Yrotation Xrotation
									End Site
									{
										OFFSET 0.000000 0.000000 0.000000
									}
								}
							}
						}
					}
				}
				JOINT RightShoulder
				{
					OFFSET 0.000000 0.000000 0.000000
					CHANNELS 3 Zrotation Yrotation Xrotation
					JOINT RightArm
					{
						OFFSET -2.700000 1.550000 -0.730000
						CHANNELS 3 Zrotation Yrotation Xrotation
						JOINT RightForeArm
						{
							OFFSET -5.450000 0.000000 0.000000
							CHANNELS 3 Zrotation Yrotation Xrotation
							JOINT RightHand
							{
								OFFSET -3.450000 0.000000 0.000000
								CHANNELS 3 Zrotation Yrotation Xrotation
								JOINT RightHandIndex1
								{
									OFFSET -0.750000 0.000000 0.000000
									CHANNELS 3 Zrotation Yrotation Xrotation
									End Site
									{
										OFFSET 0.000000 0.000000 0.000000
									}
								}
							}
						}
					}
				}
			}
		}
	}
}
MOTION
Frames: 12
Frame Time: 0.016667
0.676520 17.722000 -2.249840 -4.035791 -7.695308 -2.194283 -15.142892 13.524806 2.769648 1.810926 1.041531 2.635337 -4.601406 5.985277 12.373425 -0.614567 5.140063 3.009884 0.549230 0.015510 0.563340 18.423743 -9.808092 3.847492 6.028662 8.146327 -33.199481 -1.262167 -3.926819 32.573499 -0.356906 -3.650731 3.163292 0.102470 0.268260 0.290580 -3.756386 -2.840424 -7.774967 10.670003 -7.462226 17.948593 -8.630974 -5.951546 3.836848 3.429227 -3.611943 -3.035615 -8.866657 8.255736 40.417294 -6.468430 6.665710 -12.628810 -23.611576 9.819279 -3.674185 -41.388121 10.484059 -10.677461 -40.000590 -22.187866 3.154659 -3.720445 2.938203 0.866010 0.149100 0.006190 0.194050 16.953864 -10.725139 0.732739 46.958868 -15.201800 -14.557674 71.575275 32.590591 14.566257 1.722578 -1.740293 -0.367810 0.332960 0.009790 -0.412880 
0.659330 17.688870 -2.203330 -3.190741 -9.117027 -1.327307 -15.180895 13.562112 2.820715 0.782127 1.078619 1.940400 -4.888923 6.059908 12.933885 -0.587503 5.121100 3.016731 0.546330 0.031250 0.535090 18.380631 -9.897194 3.663305 5.901847 7.075619 -31.984958 -0.448123 -3.721470 27.683705 -0.227230 -3.036551 3.386847 0.111300 0.294420 0.307340 -3.627644 -2.872109 -7.631774 9.419716 -7.096136 16.239105 -8.253036 -5.874563 4.173786 3.304325 -3.572739 -2.745152 -8.588281 8.606958 39.241966 -6.361270 7.213730 -11.602020 -22.647804 10.988307 -3.778881 -42.198217 10.750487 -10.730105 -40.255559 -21.812685 3.131243 -3.749847 2.980936 0.816480 0.181580 -0.010300 0.214200 16.332002 -11.753587 0.476102 47.362300 -15.438204 -14.320619 71.724772 31.768482 14.223113 1.714211 -1.784302 -0.350620 0.310990 0.001490 -0.388910 
0.644660 17.665680 -2.168290 -2.593731 -10.572306 -0.687769 -15.209966 13.580869 2.854288 -0.059028 1.091273 1.360852 -5.061496 6.125816 13.467066 -0.566045 5.113346 3.030349 0.533800 0.030770 0.511110 18.350625 -9.939956 3.555557 5.904832 6.386723 -31.022974 0.268370 -3.605866 24.153841 -0.144652 -2.658812 3.544521 0.109160 0.327850 0.310530 -3.529701 -2.905297 -7.544347 8.534386 -6.851534 15.219718 -8.006705 -5.815000 4.126133 3.247485 -3.547892 -2.504785 -8.372074 8.959450 38.394043 -6.334010 7.755650 -10.813670 -22.091101 11.918608 -3.894369 -42.612301 11.031865 -10.721386 -40.589011 -21.733519 3.232642 -3.775334 2.994546 0.781580 0.212290 -0.030060 0.230170 15.951485 -12.592214 0.276229 47.695684 -15.653299 -14.115295 71.631487 31.165266 13.957874 1.706655 -1.799892 -0.347730 0.310790 -0.001590 -0.371900 
0.632220 17.651100 -2.138560 -2.320881 -11.840256 -0.049500 -15.218130 13.570976 2.857583 -0.585173 1.031471 0.720597 -5.220968 6.186013 13.954454 -0.546059 5.104927 3.045693 0.522930 0.023810 0.500160 18.346392 -9.958841 3.502962 6.113929 5.984864 -30.307533 0.836676 -3.511933 21.512511 -0.087119 -2.417988 3.652429 0.104130 0.356310 0.312570 -3.505089 -2.892356 -7.473703 8.312218 -6.789563 14.336433 -7.950495 -5.865431 4.002010 3.206371 -3.613033 -2.284823 -8.334202 9.231082 37.639907 -6.447500 8.180640 -9.918350 -21.640536 12.707789 -4.003290 -42.940878 11.155260 -10.599248 -40.843136 -21.499018 3.293033 -3.800773 3.005604 0.745510 0.240590 -0.050970 0.241600 15.590733 -13.302414 0.072450 47.947477 -15.565587 -13.777573 71.468916 30.554528 13.717573 1.707660 -1.816886 -0.344820 0.308500 -0.007710 -0.359260 
0.621120 17.645270 -2.116790 -2.348163 -13.004594 0.631499 -15.206972 13.537716 2.840505 -0.857655 0.934418 0.084191 -5.332631 6.200122 14.247993 -0.535467 5.079973 3.063864 0.522070 0.025220 0.487530 18.364497 -9.964656 3.490517 6.521712 5.785033 -29.788254 1.273847 -3.415475 19.364158 -0.048385 -2.252599 3.732314 0.104120 0.381890 0.321750 -3.546602 -2.833806 -7.415590 8.619996 -6.855041 13.607350 -8.093751 -6.001998 3.838899 3.158206 -3.722203 -2.089260 -8.333746 9.602864 36.828680 -6.393640 8.594390 -9.156970 -21.347331 13.304485 -4.084281 -43.137361 11.194463 -10.443402 -40.970553 -21.432004 3.385895 -3.820685 3.028923 0.714800 0.266810 -0.068570 0.258830 15.354718 -13.871299 -0.127406 48.283070 -15.322074 -13.451587 71.059109 30.212581 13.583351 1.705899 -1.838798 -0.337890 0.300340 -0.015880 -0.346600 
0.613270 17.650410 -2.104960 -2.509314 -14.161562 1.161418 -15.187204 13.513852 2.825188 -1.015320 0.844180 -0.450228 -5.391699 6.209525 14.511716 -0.525166 5.047635 3.080710 0.515060 0.028260 0.472880 18.387687 -9.966394 3.496845 6.960553 5.669535 -29.355158 1.551905 -3.316853 17.708923 -0.023546 -2.127765 3.789139 0.102970 0.398030 0.317090 -3.607896 -2.790362 -7.385510 9.090622 -7.001523 13.281665 -8.262336 -6.181359 3.568356 3.047952 -3.994522 -1.989166 -8.722411 10.092287 36.370791 -6.211200 8.926710 -8.752690 -21.140937 13.713100 -4.116316 -43.385826 11.156894 -10.346953 -40.836582 -21.468742 3.452441 -3.828424 3.034431 0.694220 0.276440 -0.078180 0.267400 15.291713 -14.136116 -0.331881 48.609802 -14.781553 -13.148579 69.831453 29.575589 13.039538 1.721872 -1.833435 -0.334980 0.302410 -0.019850 -0.333340 
0.605060 17.664590 -2.103600 -2.648335 -15.296596 1.531699 -15.186835 13.520893 2.826080 -1.066680 0.775936 -0.868878 -5.573677 6.250958 14.670170 -0.500809 5.020339 3.092003 0.518400 0.043280 0.461790 18.387434 -9.948285 3.508093 7.294088 5.596845 -28.995994 1.766145 -3.243328 16.485872 -0.016066 -2.037763 3.836562 0.098000 0.401380 0.319220 -3.601703 -2.833365 -7.394373 9.135806 -7.035148 13.296625 -8.082077 -6.243209 3.311325 2.977540 -4.130318 -2.056230 -8.993098 10.485820 36.444044 -6.103660 9.268760 -8.580360 -20.974427 13.788224 -4.072252 -43.727083 10.902042 -10.250128 -40.418723 -21.437451 3.442443 -3.824956 3.040503 0.682570 0.277030 -0.072190 0.282100 15.251645 -14.070268 -0.424281 48.974723 -14.181191 -12.967649 68.589976 29.404661 12.743323 1.739941 -1.825868 -0.319330 0.297670 -0.031660 -0.318060 
0.600210 17.680870 -2.107310 -2.776044 -16.258400 1.835232 -15.196278 13.530722 2.833783 -1.057512 0.730166 -1.148928 -5.842129 6.284076 14.598006 -0.470078 4.976610 3.096448 0.545310 0.089930 0.462420 18.378506 -9.923456 3.509363 7.439053 5.519548 -28.737707 2.042917 -3.199197 15.525524 -0.022955 -1.972151 3.864128 0.108460 0.379840 0.327620 -3.570148 -2.898299 -7.404050 9.001700 -7.025205 13.304688 -7.710389 -6.262453 3.314009 2.883899 -4.156953 -2.174894 -9.122824 10.764042 36.682402 -5.955990 9.551260 -8.728590 -20.796487 13.580788 -3.972223 -44.127207 10.341115 -10.110848 -40.031831 -21.247469 3.380042 -3.806334 3.067105 0.670440 0.265380 -0.049240 0.300820 15.285804 -13.761103 -0.501158 49.294298 -13.455602 -12.856623 66.944917 29.244281 12.283985 1.762766 -1.828328 -0.287190 0.277130 -0.058760 -0.301570 
0.597760 17.698180 -2.115380 -2.885595 -17.010815 2.085477 -15.217367 13.551810 2.842053 -1.010223 0.690680 -1.367971 -6.061638 6.298368 14.439999 -0.446639 4.934528 3.100668 0.575280 0.135200 0.481380 18.358564 -9.892719 3.498192 7.386376 5.420726 -28.525892 2.392785 -3.185345 14.711610 -0.032964 -1.921487 3.880401 0.119050 0.352480 0.336120 -3.506054 -2.997223 -7.407997 8.683753 -6.987591 13.242743 -7.201964 -6.258594 3.605346 2.823740 -4.038011 -2.339950 -9.029874 10.871479 37.003494 -6.105080 9.875690 -9.039320 -20.676110 13.046210 -3.829535 -44.468167 9.482605 -9.885464 -39.581954 -20.923412 3.259296 -3.792482 3.085278 0.662170 0.253850 -0.024450 0.310200 15.354468 -13.227896 -0.499995 49.648063 -12.711903 -12.869633 65.364729 29.623088 12.082996 1.785200 -1.830735 -0.257310 0.256890 -0.087190 -0.293210 
0.597200 17.715220 -2.127110 -2.888662 -17.666864 2.200243 -15.251301 13.580835 2.858354 -0.975872 0.672585 -1.480109 -6.323201 6.324474 14.244272 -0.435784 4.914108 3.092839 0.608400 0.181580 0.504860 18.326024 -9.861289 3.472966 7.178628 5.293788 -28.351435 2.584619 -3.158031 14.102487 -0.045958 -1.884540 3.882150 0.137140 0.322580 0.348190 -3.402632 -3.119479 -7.411314 8.039800 -6.857610 13.228923 -6.541989 -6.172997 4.036985 2.750874 -3.789033 -2.449428 -8.705916 10.863539 37.354618 -6.272950 10.128750 -9.569500 -20.781288 12.320824 -3.715823 -44.432960 8.464223 -9.531388 -39.340423 -20.667389 3.197194 -3.781809 3.108240 0.659840 0.242650 0.001310 0.314680 15.715407 -12.570459 -0.505907 49.582068 -12.008450 -12.825195 64.352978 30.392352 12.206687 1.796969 -1.840899 -0.231990 0.237910 -0.109890 -0.291090 
0.600090 17.727650 -2.142720 -2.906409 -18.301820 2.355483 -15.286638 13.593350 2.870437 -0.963471 0.662233 -1.593807 -6.587489 6.329131 13.918994 -0.442339 4.901069 3.083805 0.632260 0.211190 0.526810 18.296043 -9.827240 3.452161 6.976589 5.254831 -28.448670 2.563473 -3.129820 13.947801 -0.053989 -1.871379 3.871015 0.152970 0.302350 0.364800 -3.303516 -3.211434 -7.403069 7.404495 -6.640810 13.035087 -5.896399 -5.998834 4.709081 2.709723 -3.412890 -2.597911 -8.101031 10.708171 37.585240 -6.609300 10.370170 -9.939460 -20.901419 11.294031 -3.528276 -44.206773 7.315884 -9.100706 -39.289030 -20.505535 3.181960 -3.787508 3.131555 0.657660 0.242940 0.016470 0.311780 16.027163 -11.695219 -0.439505 49.393650 -11.192028 -12.743635 63.722374 31.354038 12.494902 1.798382 -1.856903 -0.215830 0.219870 -0.119940 -0.296070 
0.606470 17.735110 -2.162400 -2.985066 -18.804698 2.532582 -15.315735 13.608755 2.876795 -0.882181 0.618126 -1.830766 -6.871608 6.366918 13.799600 -0.447929 4.900707 3.073314 0.645790 0.229790 0.543120 18.269606 -9.799087 3.437463 6.748904 5.245037 -28.687841 2.448696 -3.100747 13.988055 -0.059036 -1.863320 3.857415 0.164290 0.286610 0.377300 -3.217658 -3.293145 -7.398140 6.898145 -6.430669 12.861854 -5.273697 -5.825779 5.357273 2.700099 -2.991872 -2.822626 -7.413986 10.471758 37.818059 -6.990230 10.615570 -10.112310 -20.956217 10.118690 -3.297360 -43.875509 6.082930 -8.595365 -39.502920 -20.177860 3.163920 -3.794140 3.152275 0.654790 0.244970 0.027970 0.307990 16.195084 -10.720743 -0.270960 49.220012 -10.455616 -12.702646 63.103847 32.291024 12.737892 1.801994 -1.871102 -0.206120 0.204390 -0.127330 -0.300850 
